<svg width="34" height="34" viewBox="0 0 34 34" fill="none" xmlns="http://www.w3.org/2000/svg">
<rect width="34" height="34" rx="17" fill="#FDF0EE"/>
<path d="M25.25 21.5009C25.265 22.0634 25.115 22.5959 24.845 23.0534C24.695 23.3234 24.4925 23.5709 24.2675 23.7734C23.75 24.2534 23.0675 24.5459 22.31 24.5684C21.215 24.5909 20.2475 24.0284 19.715 23.1659C19.43 22.7234 19.2575 22.1909 19.25 21.6284C19.2275 20.6834 19.6475 19.8284 20.3225 19.2659C20.8325 18.8459 21.4775 18.5834 22.1825 18.5684C23.84 18.5309 25.2125 19.8434 25.25 21.5009Z" stroke="#ED6B5C" stroke-width="1.5" stroke-miterlimit="10" stroke-linecap="round" stroke-linejoin="round"/>
<path d="M21.08 21.5909L21.8375 22.3109L23.405 20.7959" stroke="#ED6B5C" stroke-width="1.5" stroke-linecap="round" stroke-linejoin="round"/>
<path d="M10.3775 13.6483L17 17.4808L23.5775 13.6708" stroke="#ED6B5C" stroke-width="1.5" stroke-linecap="round" stroke-linejoin="round"/>
<path d="M17 24.2758V17.4733" stroke="#ED6B5C" stroke-width="1.5" stroke-linecap="round" stroke-linejoin="round"/>
<path d="M24.2075 14.9459V19.1909C24.2075 19.2284 24.2075 19.2584 24.2 19.2959C23.675 18.8384 23 18.5684 22.25 18.5684C21.545 18.5684 20.8925 18.8159 20.375 19.2284C19.685 19.7759 19.25 20.6234 19.25 21.5684C19.25 22.1309 19.4075 22.6634 19.685 23.1134C19.7525 23.2334 19.835 23.3459 19.925 23.4509L18.5525 24.2084C17.6975 24.6884 16.3025 24.6884 15.4475 24.2084L11.4425 21.9884C10.535 21.4859 9.79251 20.2259 9.79251 19.1909V14.9459C9.79251 13.9109 10.535 12.6509 11.4425 12.1484L15.4475 9.92836C16.3025 9.44836 17.6975 9.44836 18.5525 9.92836L22.5575 12.1484C23.465 12.6509 24.2075 13.9109 24.2075 14.9459Z" stroke="#ED6B5C" stroke-width="1.5" stroke-linecap="round" stroke-linejoin="round"/>
</svg>
