<svg width="34" height="34" viewBox="0 0 34 34" fill="none" xmlns="http://www.w3.org/2000/svg">
<rect width="34" height="34" rx="17" fill="#FDF0EE"/>
<path d="M24.4775 21.8159C24.4775 22.0859 24.4175 22.3634 24.29 22.6334C24.1625 22.9034 23.9975 23.1584 23.78 23.3984C23.4125 23.8034 23.0075 24.0959 22.55 24.2834C22.1 24.4709 21.6125 24.5684 21.0875 24.5684C20.3225 24.5684 19.505 24.3884 18.6425 24.0209C17.78 23.6534 16.9175 23.1584 16.0625 22.5359C15.2 21.9059 14.3825 21.2084 13.6025 20.4359C12.83 19.6559 12.1325 18.8384 11.51 17.9834C10.895 17.1284 10.4 16.2734 10.04 15.4259C9.68 14.5709 9.5 13.7534 9.5 12.9734C9.5 12.4634 9.59 11.9759 9.77 11.5259C9.95 11.0684 10.235 10.6484 10.6325 10.2734C11.1125 9.80086 11.6375 9.56836 12.1925 9.56836C12.4025 9.56836 12.6125 9.61336 12.8 9.70336C12.995 9.79336 13.1675 9.92836 13.3025 10.1234L15.0425 12.5759C15.1775 12.7634 15.275 12.9359 15.3425 13.1009C15.41 13.2584 15.4475 13.4159 15.4475 13.5584C15.4475 13.7384 15.395 13.9184 15.29 14.0909C15.1925 14.2634 15.05 14.4434 14.87 14.6234L14.3 15.2159C14.2175 15.2984 14.18 15.3959 14.18 15.5159C14.18 15.5759 14.1875 15.6284 14.2025 15.6884C14.225 15.7484 14.2475 15.7934 14.2625 15.8384C14.3975 16.0859 14.63 16.4084 14.96 16.7984C15.2975 17.1884 15.6575 17.5859 16.0475 17.9834C16.4525 18.3809 16.8425 18.7484 17.24 19.0859C17.63 19.4159 17.9525 19.6409 18.2075 19.7759C18.245 19.7909 18.29 19.8134 18.3425 19.8359C18.4025 19.8584 18.4625 19.8659 18.53 19.8659C18.6575 19.8659 18.755 19.8209 18.8375 19.7384L19.4075 19.1759C19.595 18.9884 19.775 18.8459 19.9475 18.7559C20.12 18.6509 20.2925 18.5984 20.48 18.5984C20.6225 18.5984 20.7725 18.6284 20.9375 18.6959C21.1025 18.7634 21.275 18.8609 21.4625 18.9884L23.945 20.7509C24.14 20.8859 24.275 21.0434 24.3575 21.2309C24.4325 21.4184 24.4775 21.6059 24.4775 21.8159Z" stroke="#ED6B5C" stroke-width="1.5" stroke-miterlimit="10"/>
<path d="M21.875 14.8184C21.875 14.3684 21.5225 13.6784 20.9975 13.1159C20.5175 12.5984 19.88 12.1934 19.25 12.1934" stroke="#ED6B5C" stroke-width="1.5" stroke-linecap="round" stroke-linejoin="round"/>
<path d="M24.5 14.8184C24.5 11.9159 22.1525 9.56836 19.25 9.56836" stroke="#ED6B5C" stroke-width="1.5" stroke-linecap="round" stroke-linejoin="round"/>
</svg>
