<svg width="34" height="34" viewBox="0 0 34 34" fill="none" xmlns="http://www.w3.org/2000/svg">
<rect width="34" height="34" rx="17" fill="#FDF0EE"/>
<path d="M16.0625 24.9433H17.9525C18.6725 24.9433 19.1375 24.4333 19.0025 23.8108L18.695 22.4534H15.32L15.0125 23.8108C14.8775 24.3958 15.3875 24.9433 16.0625 24.9433Z" stroke="#ED6B5C" stroke-width="1.4" stroke-linecap="round" stroke-linejoin="round"/>
<path d="M18.695 22.4459L19.9925 21.2908C20.72 20.6458 20.75 20.1958 20.1725 19.4683L17.885 16.5659C17.405 15.9584 16.6175 15.9584 16.1375 16.5659L13.85 19.4683C13.2725 20.1958 13.2725 20.6683 14.03 21.2908L15.3275 22.4459" stroke="#ED6B5C" stroke-width="1.4" stroke-linecap="round" stroke-linejoin="round"/>
<path d="M17.0075 16.4083V18.3058" stroke="#ED6B5C" stroke-width="1.4" stroke-linecap="round" stroke-linejoin="round"/>
<path d="M17.39 11.8184H16.64C16.2275 11.8184 15.89 11.4809 15.89 11.0684V10.3184C15.89 9.90586 16.2275 9.56836 16.64 9.56836H17.39C17.8025 9.56836 18.14 9.90586 18.14 10.3184V11.0684C18.14 11.4809 17.8025 11.8184 17.39 11.8184Z" stroke="#ED6B5C" stroke-width="1.4" stroke-linecap="round" stroke-linejoin="round"/>
<path d="M10.4525 18.6958H11.2025C11.615 18.6958 11.9525 18.3583 11.9525 17.9458V17.1958C11.9525 16.7833 11.615 16.4458 11.2025 16.4458H10.4525C10.04 16.4458 9.7025 16.7833 9.7025 17.1958V17.9458C9.7025 18.3583 10.04 18.6958 10.4525 18.6958Z" stroke="#ED6B5C" stroke-width="1.4" stroke-linecap="round" stroke-linejoin="round"/>
<path d="M23.5475 18.6958H22.7975C22.385 18.6958 22.0475 18.3583 22.0475 17.9458V17.1958C22.0475 16.7833 22.385 16.4458 22.7975 16.4458H23.5475C23.96 16.4458 24.2975 16.7833 24.2975 17.1958V17.9458C24.2975 18.3583 23.96 18.6958 23.5475 18.6958Z" stroke="#ED6B5C" stroke-width="1.4" stroke-linecap="round" stroke-linejoin="round"/>
<path d="M15.89 10.7384C13.0325 11.0759 10.8125 13.4984 10.8125 16.4459" stroke="#ED6B5C" stroke-width="1.4" stroke-linecap="round" stroke-linejoin="round"/>
<path d="M23.1875 16.4459C23.1875 13.5059 20.9825 11.0909 18.14 10.7384" stroke="#ED6B5C" stroke-width="1.4" stroke-linecap="round" stroke-linejoin="round"/>
</svg>
