<svg width="34" height="34" viewBox="0 0 34 34" fill="none" xmlns="http://www.w3.org/2000/svg">
<rect width="34" height="34" rx="17" fill="#FDF0EE"/>
<path d="M24.5 19.3184V14.8184C24.5 11.0684 23 9.56836 19.25 9.56836H14.75C11 9.56836 9.5 11.0684 9.5 14.8184V19.3184C9.5 23.0684 11 24.5684 14.75 24.5684H19.25C23 24.5684 24.5 23.0684 24.5 19.3184Z" stroke="#ED6B5C" stroke-width="1.5" stroke-linecap="round" stroke-linejoin="round"/>
<path d="M9.89001 13.4009H24.11" stroke="#ED6B5C" stroke-width="1.5" stroke-linecap="round" stroke-linejoin="round"/>
<path d="M14.39 9.65088V13.2959" stroke="#ED6B5C" stroke-width="1.5" stroke-linecap="round" stroke-linejoin="round"/>
<path d="M19.61 9.65088V12.9584" stroke="#ED6B5C" stroke-width="1.5" stroke-linecap="round" stroke-linejoin="round"/>
<path d="M15.3125 18.9058V18.0058C15.3125 16.8508 16.13 16.3783 17.1275 16.9558L17.9075 17.4058L18.6875 17.8558C19.685 18.4333 19.685 19.3783 18.6875 19.9558L17.9075 20.4058L17.1275 20.8558C16.13 21.4333 15.3125 20.9608 15.3125 19.8058V18.9058V18.9058Z" stroke="#ED6B5C" stroke-width="1.5" stroke-miterlimit="10" stroke-linecap="round" stroke-linejoin="round"/>
</svg>
