<svg width="1240" height="242" viewBox="0 0 1240 242" fill="none" xmlns="http://www.w3.org/2000/svg">
<g clip-path="url(#clip0_15_24)">
<rect width="1240" height="242" rx="12" fill="white"/>
<ellipse cx="1244.17" cy="25.6093" rx="522.328" ry="400.599" fill="url(#paint0_linear_15_24)"/>
<ellipse cx="325.432" cy="325.93" rx="792.932" ry="608.138" fill="url(#paint1_linear_15_24)"/>
<ellipse cx="-63.9236" cy="159.648" rx="406.576" ry="311.637" fill="url(#paint2_linear_15_24)"/>
<ellipse cx="916" cy="587.068" rx="1169" ry="695" fill="url(#paint3_linear_15_24)"/>
<g filter="url(#filter0_f_15_24)">
<ellipse cx="1894.18" cy="362.509" rx="684.206" ry="524.457" fill="url(#paint4_linear_15_24)"/>
</g>
<path d="M142.5 84L142.733 85.2667L144 85.5L142.733 85.7333L142.5 87L142.267 85.7333L141 85.5L142.267 85.2667L142.5 84Z" fill="white"/>
<path d="M129 27L129.778 31.2222L134 32L129.778 32.7778L129 37L128.222 32.7778L124 32L128.222 31.2222L129 27Z" fill="white"/>
<path d="M189.5 127L189.733 128.267L191 128.5L189.733 128.733L189.5 130L189.267 128.733L188 128.5L189.267 128.267L189.5 127Z" fill="white"/>
<path d="M95.5 149.068L95.7333 150.335L97 150.568L95.7333 150.802L95.5 152.068L95.2667 150.802L94 150.568L95.2667 150.335L95.5 149.068Z" fill="white"/>
<path d="M272.5 185.068L272.733 186.335L274 186.568L272.733 186.802L272.5 188.068L272.267 186.802L271 186.568L272.267 186.335L272.5 185.068Z" fill="white"/>
<path d="M104.5 91L104.889 93.1111L107 93.5L104.889 93.8889L104.5 96L104.111 93.8889L102 93.5L104.111 93.1111L104.5 91Z" fill="white"/>
<path d="M34 90L34.4667 92.5333L37 93L34.4667 93.4667L34 96L33.5333 93.4667L31 93L33.5333 92.5333L34 90Z" fill="white"/>
<path d="M58 202.068L58.4667 204.602L61 205.068L58.4667 205.535L58 208.068L57.5333 205.535L55 205.068L57.5333 204.602L58 202.068Z" fill="white"/>
<path d="M188 68L188.622 71.3777L192 72L188.622 72.6223L188 76L187.378 72.6223L184 72L187.378 71.3777L188 68Z" fill="white"/>
<path d="M343 196.068L343.622 199.446L347 200.068L343.622 200.691L343 204.068L342.378 200.691L339 200.068L342.378 199.446L343 196.068Z" fill="white"/>
<path d="M218.5 56L218.733 57.2667L220 57.5L218.733 57.7333L218.5 59L218.267 57.7333L217 57.5L218.267 57.2667L218.5 56Z" fill="white"/>
<path d="M248 30L248.311 31.6889L250 32L248.311 32.3111L248 34L247.689 32.3111L246 32L247.689 31.6889L248 30Z" fill="white"/>
<path d="M269 61L269.311 62.6889L271 63L269.311 63.3111L269 65L268.689 63.3111L267 63L268.689 62.6889L269 61Z" fill="white"/>
<path d="M322 28L322.311 29.6889L324 30L322.311 30.3111L322 32L321.689 30.3111L320 30L321.689 29.6889L322 28Z" fill="white"/>
<path d="M369 76L369.311 77.6889L371 78L369.311 78.3111L369 80L368.689 78.3111L367 78L368.689 77.6889L369 76Z" fill="white"/>
<path d="M397 24L397.467 26.5333L400 27L397.467 27.4667L397 30L396.533 27.4667L394 27L396.533 26.5333L397 24Z" fill="white"/>
<path d="M364 143.068L364.467 145.602L367 146.068L364.467 146.535L364 149.068L363.533 146.535L361 146.068L363.533 145.602L364 143.068Z" fill="white"/>
<path d="M507 18L507.311 19.6889L509 20L507.311 20.3111L507 22L506.689 20.3111L505 20L506.689 19.6889L507 18Z" fill="white"/>
<path d="M559 231.068L559.311 232.757L561 233.068L559.311 233.379L559 235.068L558.689 233.379L557 233.068L558.689 232.757L559 231.068Z" fill="white"/>
<path d="M414 92L414.311 93.6889L416 94L414.311 94.3111L414 96L413.689 94.3111L412 94L413.689 93.6889L414 92Z" fill="white"/>
<path d="M436 59L436.622 62.3777L440 63L436.622 63.6223L436 67L435.378 63.6223L432 63L435.378 62.3777L436 59Z" fill="white"/>
<path d="M460 196.068L460.622 199.446L464 200.068L460.622 200.691L460 204.068L459.378 200.691L456 200.068L459.378 199.446L460 196.068Z" fill="white"/>
<path d="M248 108L248.311 109.689L250 110L248.311 110.311L248 112L247.689 110.311L246 110L247.689 109.689L248 108Z" fill="white"/>
<path d="M182 198.068L182.311 199.757L184 200.068L182.311 200.379L182 202.068L181.689 200.379L180 200.068L181.689 199.757L182 198.068Z" fill="white"/>
<path d="M306 114L306.311 115.689L308 116L306.311 116.311L306 118L305.689 116.311L304 116L305.689 115.689L306 114Z" fill="white"/>
<path d="M52.5 32L52.8889 34.1111L55 34.5L52.8889 34.8889L52.5 37L52.1111 34.8889L50 34.5L52.1111 34.1111L52.5 32Z" fill="white"/>
<path d="M484 100L484.311 101.689L486 102L484.311 102.311L484 104L483.689 102.311L482 102L483.689 101.689L484 100Z" fill="white"/>
<path d="M561 100L561.311 101.689L563 102L561.311 102.311L561 104L560.689 102.311L559 102L560.689 101.689L561 100Z" fill="white"/>
<path d="M575 61L575.311 62.6889L577 63L575.311 63.3111L575 65L574.689 63.3111L573 63L574.689 62.6889L575 61Z" fill="white"/>
<path d="M615 76L615.311 77.6889L617 78L615.311 78.3111L615 80L614.689 78.3111L613 78L614.689 77.6889L615 76Z" fill="white"/>
<path d="M698 26L698.311 27.6889L700 28L698.311 28.3111L698 30L697.689 28.3111L696 28L697.689 27.6889L698 26Z" fill="white"/>
<path d="M511.5 63L511.889 65.1111L514 65.5L511.889 65.8889L511.5 68L511.111 65.8889L509 65.5L511.111 65.1111L511.5 63Z" fill="white"/>
<path d="M604.5 26L604.889 28.1111L607 28.5L604.889 28.8889L604.5 31L604.111 28.8889L602 28.5L604.111 28.1111L604.5 26Z" fill="white"/>
<path d="M664 82L664.311 83.6889L666 84L664.311 84.3111L664 86L663.689 84.3111L662 84L663.689 83.6889L664 82Z" fill="white"/>
<path d="M720 74L720.311 75.6889L722 76L720.311 76.3111L720 78L719.689 76.3111L718 76L719.689 75.6889L720 74Z" fill="white"/>
<path d="M765.5 75L765.889 77.1111L768 77.5L765.889 77.8889L765.5 80L765.111 77.8889L763 77.5L765.111 77.1111L765.5 75Z" fill="white"/>
<path d="M795 32L795.311 33.6889L797 34L795.311 34.3111L795 36L794.689 34.3111L793 34L794.689 33.6889L795 32Z" fill="white"/>
<path d="M846 73L846.467 75.5333L849 76L846.467 76.4667L846 79L845.533 76.4667L843 76L845.533 75.5333L846 73Z" fill="white"/>
<path d="M784 207.068L784.467 209.602L787 210.068L784.467 210.535L784 213.068L783.533 210.535L781 210.068L783.533 209.602L784 207.068Z" fill="white"/>
<path d="M868 22L868.311 23.6889L870 24L868.311 24.3111L868 26L867.689 24.3111L866 24L867.689 23.6889L868 22Z" fill="white"/>
<path d="M913 106L913.311 107.689L915 108L913.311 108.311L913 110L912.689 108.311L911 108L912.689 107.689L913 106Z" fill="white"/>
<path d="M837 155.068L837.311 156.757L839 157.068L837.311 157.379L837 159.068L836.689 157.379L835 157.068L836.689 156.757L837 155.068Z" fill="white"/>
<path d="M979 115L979.311 116.689L981 117L979.311 117.311L979 119L978.689 117.311L977 117L978.689 116.689L979 115Z" fill="white"/>
<path d="M949 204.068L949.311 205.757L951 206.068L949.311 206.379L949 208.068L948.689 206.379L947 206.068L948.689 205.757L949 204.068Z" fill="white"/>
<path d="M1013 78L1013.31 79.6889L1015 80L1013.31 80.3111L1013 82L1012.69 80.3111L1011 80L1012.69 79.6889L1013 78Z" fill="white"/>
<path d="M1046 181.068L1046.31 182.757L1048 183.068L1046.31 183.379L1046 185.068L1045.69 183.379L1044 183.068L1045.69 182.757L1046 181.068Z" fill="white"/>
<path d="M1056 42L1056.31 43.6889L1058 44L1056.31 44.3111L1056 46L1055.69 44.3111L1054 44L1055.69 43.6889L1056 42Z" fill="white"/>
<path d="M970.5 35L971.044 37.9555L974 38.5L971.044 39.0445L970.5 42L969.956 39.0445L967 38.5L969.956 37.9555L970.5 35Z" fill="white"/>
<path d="M907.5 144.068L908.044 147.024L911 147.568L908.044 148.113L907.5 151.068L906.956 148.113L904 147.568L906.956 147.024L907.5 144.068Z" fill="white"/>
<path d="M923 72L923.311 73.6889L925 74L923.311 74.3111L923 76L922.689 74.3111L921 74L922.689 73.6889L923 72Z" fill="white"/>
<path d="M760 118L760.311 119.689L762 120L760.311 120.311L760 122L759.689 120.311L758 120L759.689 119.689L760 118Z" fill="white"/>
<path d="M1073 88L1073.47 90.5333L1076 91L1073.47 91.4667L1073 94L1072.53 91.4667L1070 91L1072.53 90.5333L1073 88Z" fill="white"/>
<path d="M1131 68L1131.31 69.6889L1133 70L1131.31 70.3111L1131 72L1130.69 70.3111L1129 70L1130.69 69.6889L1131 68Z" fill="white"/>
<path d="M1193 76L1193.31 77.6889L1195 78L1193.31 78.3111L1193 80L1192.69 78.3111L1191 78L1192.69 77.6889L1193 76Z" fill="white"/>
<path d="M1206.5 113L1206.89 115.111L1209 115.5L1206.89 115.889L1206.5 118L1206.11 115.889L1204 115.5L1206.11 115.111L1206.5 113Z" fill="white"/>
<path d="M1177 30L1177.31 31.6889L1179 32L1177.31 32.3111L1177 34L1176.69 32.3111L1175 32L1176.69 31.6889L1177 30Z" fill="white"/>
<path d="M1098 147.068L1098.31 148.757L1100 149.068L1098.31 149.379L1098 151.068L1097.69 149.379L1096 149.068L1097.69 148.757L1098 147.068Z" fill="white"/>
<path d="M1218 222.068L1218.31 223.757L1220 224.068L1218.31 224.379L1218 226.068L1217.69 224.379L1216 224.068L1217.69 223.757L1218 222.068Z" fill="white"/>
<path d="M1181 175.068L1181.62 178.446L1185 179.068L1181.62 179.691L1181 183.068L1180.38 179.691L1177 179.068L1180.38 178.446L1181 175.068Z" fill="white"/>
<path d="M1154 110L1154.31 111.689L1156 112L1154.31 112.311L1154 114L1153.69 112.311L1152 112L1153.69 111.689L1154 110Z" fill="white"/>
<path d="M1116 192.068L1116.31 193.757L1118 194.068L1116.31 194.379L1116 196.068L1115.69 194.379L1114 194.068L1115.69 193.757L1116 192.068Z" fill="white"/>
</g>
<defs>
<filter id="filter0_f_15_24" x="754.549" y="-617.37" width="2279.26" height="1959.76" filterUnits="userSpaceOnUse" color-interpolation-filters="sRGB">
<feFlood flood-opacity="0" result="BackgroundImageFix"/>
<feBlend mode="normal" in="SourceGraphic" in2="BackgroundImageFix" result="shape"/>
<feGaussianBlur stdDeviation="227.711" result="effect1_foregroundBlur_15_24"/>
</filter>
<linearGradient id="paint0_linear_15_24" x1="216.052" y1="12.9277" x2="965.354" y2="989.919" gradientUnits="userSpaceOnUse">
<stop offset="0.144231" stop-color="#ED6B5C"/>
<stop offset="1" stop-color="#4B5159"/>
</linearGradient>
<linearGradient id="paint1_linear_15_24" x1="-1235.33" y1="306.679" x2="-97.8344" y2="1789.82" gradientUnits="userSpaceOnUse">
<stop offset="0.144231" stop-color="#ED6B5C"/>
<stop offset="1" stop-color="#4B5159"/>
</linearGradient>
<linearGradient id="paint2_linear_15_24" x1="-864.206" y1="149.783" x2="-281.392" y2="910.149" gradientUnits="userSpaceOnUse">
<stop offset="0.144231" stop-color="#ED6B5C"/>
<stop offset="1" stop-color="#4B5159"/>
</linearGradient>
<linearGradient id="paint3_linear_15_24" x1="-1384.99" y1="565.067" x2="-202.499" y2="2554.04" gradientUnits="userSpaceOnUse">
<stop offset="0.144231" stop-color="#ED6B5C"/>
<stop offset="1" stop-color="#4B5159"/>
</linearGradient>
<linearGradient id="paint4_linear_15_24" x1="547.425" y1="345.906" x2="1528.26" y2="1625.5" gradientUnits="userSpaceOnUse">
<stop offset="0.144231" stop-color="#ED6B5C"/>
<stop offset="1" stop-color="#4B5159"/>
</linearGradient>
<clipPath id="clip0_15_24">
<rect width="1240" height="242" rx="12" fill="white"/>
</clipPath>
</defs>
</svg>
