<svg width="678" height="678" viewBox="0 0 678 678" fill="none" xmlns="http://www.w3.org/2000/svg">
<path fill-rule="evenodd" clip-rule="evenodd" d="M339 0C526.224 0 678 151.776 678 339C678 526.226 526.224 678 339 678H289C221.438 678 166.667 623.229 166.667 555.667L166.667 339C166.667 243.823 243.824 166.667 339 166.667C434.177 166.667 511.333 243.823 511.333 339C511.333 434.176 434.177 511.333 339 511.333C337.109 511.333 335.225 511.303 333.349 511.242L279.833 510.328C264.01 510.057 250.548 500.399 244.667 486.752V555.667C244.667 580.151 264.516 600 289 600H339C483.146 600 600 483.147 600 339C600 194.854 483.146 78 339 78C194.853 78 78 194.854 78 339V472.333C78 493.872 60.5391 511.333 39 511.333C17.4609 511.333 0 493.872 0 472.333V339C0 151.776 151.774 0 339 0ZM244.667 339C244.667 389.896 284.976 431.379 335.41 433.266L339.305 433.333C391.263 433.169 433.333 390.996 433.333 339C433.333 286.901 391.099 244.667 339 244.667C286.902 244.667 244.667 286.901 244.667 339Z" fill="#F17C74"/>
</svg>
