<svg width="1440" height="1221" viewBox="0 0 1440 1221" fill="none" xmlns="http://www.w3.org/2000/svg">
<g opacity="0.8" clip-path="url(#clip0_4957_14010)">
<mask id="mask0_4957_14010" style="mask-type:alpha" maskUnits="userSpaceOnUse" x="0" y="0" width="1440" height="1440">
<rect width="1440" height="1440" fill="url(#paint0_radial_4957_14010)"/>
</mask>
<g mask="url(#mask0_4957_14010)">
<g clip-path="url(#clip1_4957_14010)">
<g clip-path="url(#clip2_4957_14010)">
<line x1="0.5" x2="0.5" y2="1440" stroke="#D0D5DD"/>
<line x1="80.5" x2="80.5" y2="1440" stroke="#D0D5DD"/>
<line x1="160.5" x2="160.5" y2="1440" stroke="#D0D5DD"/>
<line x1="240.5" x2="240.5" y2="1440" stroke="#D0D5DD"/>
<line x1="320.5" x2="320.5" y2="1440" stroke="#D0D5DD"/>
<line x1="400.5" x2="400.5" y2="1440" stroke="#D0D5DD"/>
<line x1="480.5" x2="480.5" y2="1440" stroke="#D0D5DD"/>
<line x1="560.5" x2="560.5" y2="1440" stroke="#D0D5DD"/>
<line x1="640.5" x2="640.5" y2="1440" stroke="#D0D5DD"/>
<line x1="720.5" x2="720.5" y2="1440" stroke="#D0D5DD"/>
<line x1="800.5" x2="800.5" y2="1440" stroke="#D0D5DD"/>
<line x1="880.5" x2="880.5" y2="1440" stroke="#D0D5DD"/>
<line x1="960.5" x2="960.5" y2="1440" stroke="#D0D5DD"/>
<line x1="1040.5" x2="1040.5" y2="1440" stroke="#D0D5DD"/>
<line x1="1120.5" x2="1120.5" y2="1440" stroke="#D0D5DD"/>
<line x1="1200.5" x2="1200.5" y2="1440" stroke="#D0D5DD"/>
<line x1="1280.5" x2="1280.5" y2="1440" stroke="#D0D5DD"/>
<line x1="1360.5" x2="1360.5" y2="1440" stroke="#D0D5DD"/>
</g>
<g clip-path="url(#clip3_4957_14010)">
<line x1="-240" y1="79.5" x2="1680" y2="79.5" stroke="#D0D5DD"/>
<line x1="-240" y1="159.5" x2="1680" y2="159.5" stroke="#D0D5DD"/>
<line x1="-240" y1="239.5" x2="1680" y2="239.5" stroke="#D0D5DD"/>
<line x1="-240" y1="319.5" x2="1680" y2="319.5" stroke="#D0D5DD"/>
<line x1="-240" y1="399.5" x2="1680" y2="399.5" stroke="#D0D5DD"/>
<line x1="-240" y1="479.5" x2="1680" y2="479.5" stroke="#D0D5DD"/>
<line x1="-240" y1="559.5" x2="1680" y2="559.5" stroke="#D0D5DD"/>
<line x1="-240" y1="639.5" x2="1680" y2="639.5" stroke="#D0D5DD"/>
<line x1="-240" y1="719.5" x2="1680" y2="719.5" stroke="#D0D5DD"/>
<line x1="-240" y1="799.5" x2="1680" y2="799.5" stroke="#D0D5DD"/>
<line x1="-240" y1="879.5" x2="1680" y2="879.5" stroke="#D0D5DD"/>
<line x1="-240" y1="959.5" x2="1680" y2="959.5" stroke="#D0D5DD"/>
<line x1="-240" y1="1039.5" x2="1680" y2="1039.5" stroke="#D0D5DD"/>
<line x1="-240" y1="1119.5" x2="1680" y2="1119.5" stroke="#D0D5DD"/>
<line x1="-240" y1="1199.5" x2="1680" y2="1199.5" stroke="#D0D5DD"/>
</g>
</g>
</g>
</g>
<defs>
<radialGradient id="paint0_radial_4957_14010" cx="0" cy="0" r="1" gradientUnits="userSpaceOnUse" gradientTransform="translate(720 720) rotate(90) scale(720 720)">
<stop/>
<stop offset="1" stop-opacity="0"/>
</radialGradient>
<clipPath id="clip0_4957_14010">
<rect width="1440" height="1221" fill="white"/>
</clipPath>
<clipPath id="clip1_4957_14010">
<rect width="1920" height="1440" fill="white" transform="translate(-240)"/>
</clipPath>
<clipPath id="clip2_4957_14010">
<rect width="1920" height="1440" fill="white" transform="translate(-240)"/>
</clipPath>
<clipPath id="clip3_4957_14010">
<rect width="1920" height="1440" fill="white" transform="translate(-240)"/>
</clipPath>
</defs>
</svg>
