<svg width="101" height="100" viewBox="0 0 101 100" fill="none" xmlns="http://www.w3.org/2000/svg">
<path fill-rule="evenodd" clip-rule="evenodd" d="M95.1431 50C95.1431 56.7553 94.6474 63.4009 94.0003 69.9057C89.121 68.5449 84.0746 67.8544 79.0003 67.8573C71.3141 67.8406 63.7057 69.3963 56.6431 72.4286V72.9029C54.3814 70.1294 51.8283 67.5771 49.0126 65.2942C39.3311 57.4443 27.1754 53.2896 14.7146 53.5714C11.8131 53.5636 8.79542 53.9984 5.92574 54.4435C5.88141 52.9679 5.85742 51.4866 5.85742 50C5.85742 42.0489 6.54373 34.2499 7.35647 26.6534C8.45742 16.363 16.7339 8.0865 27.0193 6.94006C34.6589 6.08851 42.5029 5.35714 50.5003 5.35714C58.4976 5.35714 66.3416 6.08851 73.981 6.94006C84.2667 8.0865 92.5431 16.363 93.6439 26.6534C94.4567 34.2499 95.1431 42.0489 95.1431 50ZM75.5003 33.9286C75.5003 40.8321 69.9038 46.4286 63.0003 46.4286C56.0967 46.4286 50.5003 40.8321 50.5003 33.9286C50.5003 27.025 56.0967 21.4286 63.0003 21.4286C69.9038 21.4286 75.5003 27.025 75.5003 33.9286Z" fill="white"/>
<path d="M63 46.4286C69.9036 46.4286 75.5 40.8322 75.5 33.9286C75.5 27.025 69.9036 21.4286 63 21.4286C56.0964 21.4286 50.5 27.025 50.5 33.9286C50.5 40.8322 56.0964 46.4286 63 46.4286Z" fill="#BFFB4F"/>
<path d="M63 46.4286C69.9036 46.4286 75.5 40.8322 75.5 33.9286C75.5 27.025 69.9036 21.4286 63 21.4286C56.0964 21.4286 50.5 27.025 50.5 33.9286C50.5 40.8322 56.0964 46.4286 63 46.4286Z" stroke="black" stroke-width="1.71455" stroke-linecap="round" stroke-linejoin="round"/>
<path fill-rule="evenodd" clip-rule="evenodd" d="M7.35667 73.3464C8.45764 83.6364 16.7341 91.9128 27.0194 93.0593C34.6591 93.9107 42.5031 94.6421 50.5005 94.6421C56.0821 94.6421 61.5891 94.2864 67.0041 93.7814C69.3476 93.5628 71.6739 93.3164 73.9814 93.0593C84.2671 91.9128 92.5436 83.6364 93.6443 73.3464C93.7664 72.2036 93.8857 71.0567 94.0007 69.9053C89.1214 68.5443 84.075 67.8539 79 67.8568C71.3142 67.8401 63.7059 69.3958 56.6432 72.4286V72.9021C54.3815 70.129 51.8284 67.5767 49.0128 65.2938C39.3312 57.4438 27.1756 53.2891 14.7147 53.5709C11.7691 53.5631 8.82857 53.7864 5.91992 54.2385C6.10642 60.7258 6.68886 67.1043 7.35667 73.3464Z" fill="#BFFB4F"/>
<path d="M5.91992 54.2385C8.82857 53.7864 11.7691 53.5631 14.7147 53.5709C27.1756 53.2891 39.3312 57.4438 49.0128 65.2938C57.9919 72.5743 64.301 82.5936 67.0041 93.7814" stroke="black" stroke-width="1.71455" stroke-linecap="round" stroke-linejoin="round"/>
<path d="M93.9998 69.9057C89.1205 68.5448 84.0741 67.8544 78.9998 67.8573C71.3136 67.8406 63.7052 69.3963 56.6426 72.4286V72.9028" stroke="black" stroke-width="1.71455" stroke-linecap="round" stroke-linejoin="round"/>
<path d="M7.35647 73.3464C8.45742 83.6371 16.7339 91.9136 27.0193 93.06C34.6589 93.9114 42.5029 94.6429 50.5003 94.6429C58.4976 94.6429 66.3416 93.9114 73.981 93.06C84.2667 91.9136 92.5431 83.6371 93.6439 73.3464C94.4567 65.7501 95.1431 57.9511 95.1431 50C95.1431 42.0489 94.4567 34.2499 93.6439 26.6534C92.5431 16.363 84.2667 8.0865 73.981 6.94006C66.3416 6.08851 58.4976 5.35714 50.5003 5.35714C42.5029 5.35714 34.6589 6.08851 27.0193 6.94006C16.7339 8.0865 8.45742 16.363 7.35647 26.6534C6.54373 34.2499 5.85742 42.0489 5.85742 50C5.85742 57.9511 6.54374 65.7501 7.35647 73.3464Z" stroke="black" stroke-width="1.71455"/>
</svg>
