<svg width="101" height="100" viewBox="0 0 101 100" fill="none" xmlns="http://www.w3.org/2000/svg">
<path d="M39.7861 5.35712H61.2147" stroke="black" stroke-width="1.71455" stroke-linecap="round" stroke-linejoin="round"/>
<path d="M50.5 5.35712V23.2143" stroke="black" stroke-width="1.71455" stroke-linecap="round" stroke-linejoin="round"/>
<path d="M50.5004 94.6429C70.2249 94.6429 86.2147 78.653 86.2147 58.9286C86.2147 39.2041 70.2249 23.2143 50.5004 23.2143C30.776 23.2143 14.7861 39.2041 14.7861 58.9286C14.7861 78.653 30.776 94.6429 50.5004 94.6429Z" fill="#BFFB4F"/>
<path d="M50.5004 94.6429C70.2249 94.6429 86.2147 78.653 86.2147 58.9286C86.2147 39.2041 70.2249 23.2143 50.5004 23.2143C30.776 23.2143 14.7861 39.2041 14.7861 58.9286C14.7861 78.653 30.776 94.6429 50.5004 94.6429Z" stroke="black" stroke-width="1.71455"/>
<path d="M6.01953 25.5992C9.25211 21.2924 13.0955 17.4702 17.421 14.2613" stroke="black" stroke-width="1.71455" stroke-linecap="round"/>
<path d="M94.9872 25.5992C91.7548 21.2924 87.9108 17.4702 83.5859 14.2613" stroke="black" stroke-width="1.71455" stroke-linecap="round"/>
<path d="M50.5 44.7126V58.9984L59.0714 67.5698" stroke="black" stroke-width="1.71455" stroke-linecap="round" stroke-linejoin="round"/>
</svg>
