<svg width="101" height="100" viewBox="0 0 101 100" fill="none" xmlns="http://www.w3.org/2000/svg">
<path d="M59.2484 89.4307C78.1651 67.371 45.5135 16.3845 75.8637 7.14812H26.1504C-2.93214 16.3845 27.1788 69.0649 9.53516 87.6815C9.53516 87.6815 15.5332 92.8572 33.9454 92.8572C52.3577 92.8572 59.2484 89.4307 59.2484 89.4307Z" fill="white"/>
<path d="M89.6465 42.0745H63.291C58.2555 13.469 70.969 6.93366 78.3973 7.14796C93.8251 9.54782 92.5751 31.4322 89.6465 42.0745Z" fill="#BFFB4F"/>
<path d="M89.6465 42.0745H63.291C58.2555 13.469 70.969 6.93366 78.3973 7.14796C93.8251 9.54782 92.5751 31.4322 89.6465 42.0745Z" stroke="black" stroke-width="2" stroke-linecap="round" stroke-linejoin="round"/>
<path d="M59.2484 89.4307C78.1651 67.371 45.5135 16.3845 75.8637 7.14812H26.1504C-2.93214 16.3845 27.1788 69.0649 9.53516 87.6815C9.53516 87.6815 15.5332 92.8572 33.9454 92.8572C52.3577 92.8572 59.2484 89.4307 59.2484 89.4307Z" stroke="black" stroke-width="2" stroke-linejoin="round"/>
<path d="M31.4766 28.137H44.7333" stroke="black" stroke-width="2" stroke-linecap="round" stroke-linejoin="round"/>
<path d="M33.1895 50.0013H46.4462" stroke="black" stroke-width="2" stroke-linecap="round" stroke-linejoin="round"/>
<path d="M33.1895 71.868H46.4462" stroke="black" stroke-width="2" stroke-linecap="round" stroke-linejoin="round"/>
</svg>
