<?xml version="1.0" encoding="utf-8"?>
<svg xmlns="http://www.w3.org/2000/svg" fill="none" height="44" viewBox="0 0 44 44" width="44">
<path clip-rule="evenodd" d="M22 0C34.1503 0 44 9.84974 44 22C44 34.1504 34.1503 44 22 44H18.7552C14.3706 44 10.8161 40.4455 10.8161 36.061V22C10.8161 15.8233 15.8234 10.8161 22 10.8161C28.1767 10.8161 33.1839 15.8233 33.1839 22C33.1839 28.1766 28.1767 33.1839 22 33.1839C21.8773 33.1839 21.755 33.1819 21.6332 33.178L18.1603 33.1186C17.1334 33.1011 16.2598 32.4743 15.8781 31.5886V36.061C15.8781 37.6499 17.1662 38.9381 18.7552 38.9381H22C31.3546 38.9381 38.9381 31.3547 38.9381 22C38.9381 12.6454 31.3546 5.06195 22 5.06195C12.6453 5.06195 5.06195 12.6454 5.06195 22V30.6529C5.06195 32.0507 3.92879 33.1839 2.53098 33.1839C1.13316 33.1839 0 32.0507 0 30.6529V22C0 9.84975 9.84965 0 22 0ZM15.8781 22C15.8781 25.303 18.494 27.9951 21.767 28.1176L22.0198 28.1219C25.3917 28.1112 28.1219 25.3744 28.1219 22C28.1219 18.619 25.381 15.8781 22 15.8781C18.619 15.8781 15.8781 18.619 15.8781 22Z" fill="black" fill-rule="evenodd"/>
</svg>