<?xml version="1.0" encoding="utf-8"?>
<svg xmlns="http://www.w3.org/2000/svg" fill="none" height="66" viewBox="0 0 63 66" width="63">
<path d="M37.4014 41.1294L39.4059 64.5307L29.1218 65.4117L27.1173 42.0103L37.4014 41.1294ZM41.7841 31.8248L63.0001 41.794L58.6173 51.0986L37.49 41.1218L41.7841 31.8248ZM21.3932 33.5715L27.1097 41.9217L7.90591 55.4425L2.00454 47.0188L21.3932 33.5715ZM4.38274 14.3129L25.776 24.2669L21.3856 33.4828L-2.02107e-05 23.6175L4.38274 14.3129ZM55.0941 9.96896L60.9955 18.3926L41.7766 31.7362L35.8828 23.4011L55.0941 9.96896ZM33.8782 -0.000197937L35.8752 23.3125L25.7684 24.1782L23.7714 0.865552L33.8782 -0.000197937Z" fill="black"/>
</svg>